<svg id="Layer_1" data-name="Layer 1" xmlns="http://www.w3.org/2000/svg" viewBox="0 0 1001.95 337.99"><defs><style>.cls-1{fill:#4053a0;}.cls-2,.cls-4{fill:#fff;}.cls-3{fill:#f6f6f6;}.cls-4{font-size:109.11px;font-family:Strasua-Regular, Strasua;}.cls-5{fill:none;stroke:#4053a0;stroke-miterlimit:10;stroke-width:7px;}</style></defs><path class="cls-1" d="M143,418.53c.74-3.72,1.28-7.28,2.16-10.76,1.83-7.21,5.31-13.34,11.62-17.7,1.83-1.27,3.16-3.24,4.8-4.8,3.08-2.94,6.22-5.81,9.25-8.64-2.2-2.49-4.82-5.42-7.37-8.41a12.74,12.74,0,0,1-2-3.08c-2.35-5.51-5.35-10-11.06-13.08-4.94-2.62-5.65-9.6-3-15.2a4.12,4.12,0,0,0,.24-2.8c-2.74-7.83-2.72-15.49,1.07-23.08a46.7,46.7,0,0,1-2.09-4.38c-1.44-4-.63-7.68,2.77-10.18,2.5-1.84,5.56-2.93,8.25-4.54,1-.6,2.24-1.63,2.41-2.63,1.68-9.53,3.19-19.09,4.62-28.67a4.38,4.38,0,0,0-1-2.76,12.34,12.34,0,0,1-.55-14.35,12.2,12.2,0,0,1,12.64-5.23c5.43,1.27,9.34,5.38,9.84,10.77.45,5-1.66,8.82-5.77,11.7a4.41,4.41,0,0,0-1.69,2.81c-.24,2.35-.08,4.74-.08,7.54,5-2.53,10.31-4.43,14.7-7.57,18.68-13.37,38.92-18.92,61.61-13.48,1.71.41,2.44-.09,3.34-1.46a12.58,12.58,0,0,1,16.3-4.36,12.43,12.43,0,0,1,6,15.75c-.64,1.68-.28,2.39,1.07,3.4,13.45,10.19,22.76,23.24,25,40.18,2.73,20.46.91,40.18-13.16,56.9-.16.18-.22.45-.14.27,4.5,2,9.3,3.43,13.33,6.06s7.34,6.45,11.19,10c1.44-.65,3.39-1.65,5.42-2.45,7.52-3,15-2.84,22.25.86,8.22,4.21,15.48,9.69,19.39,18.36,5.35,11.89,3.29,23.15-3.61,33.86-3.56,5.54-7.27,11-10.27,16.88-3.29,6.39-4.55,13.49-5.19,20.64-1.19,13.45-8.73,22.33-20.67,27.35A100.31,100.31,0,0,1,304.06,498c-8.91,1.65-16.06,5.46-21,13.18-1.71,2.67-3.62,5.21-5.55,7.72-4.75,6.16-10,8-17.45,5.75a49.79,49.79,0,0,1-9.31-4.27,3.84,3.84,0,0,0-4.06-.26c-11.81,5.47-23.63,10.94-35.58,16.13a30.15,30.15,0,0,1-15.7,2.71c-1.62-.19-3.41,1.14-5,1-4.09-.4-8.33-.68-12.16-2-11.45-4-22.74-8.49-34.09-12.8-15.22-5.78-30.37-11.74-45.68-17.28C87.7,504,81.76,496.53,80.11,485.48c-1.37-9.22-2.54-18.48-3.69-27.74-1.92-15.47-3.82-30.94-5.56-46.43a32.51,32.51,0,0,1,.23-8.92c.81-4.88,4.62-7.59,9.46-6.43a125.79,125.79,0,0,1,14.24,4.75c15.76,5.83,31.49,11.75,47.24,17.63C142.27,418.42,142.54,418.44,143,418.53Zm139.31-96.62q-1.26,2.54-2.51,5.08c-5.17,10.56-12.56,19.52-20.38,28.14-15,16.53-31.52,31.47-48.23,46.21a11.21,11.21,0,0,0-4.23,7.74c-1.52,15.77-3.17,31.52-4.75,47.28-.25,2.49-.36,5-.54,7.49a74,74,0,0,0,1.94-9.79c2.42-14.57,4.81-29.15,7.38-43.7a8.49,8.49,0,0,1,2.5-4.62c15.27-13.31,30.44-26.7,44.63-41.18,11.9-12.14,19.63-26.48,24.16-42.72a19.1,19.1,0,0,0,0-11.35ZM74.68,407.71c.1,1.32.15,2.64.3,4,1.33,12.52,2.64,25,4,37.56q2,17.44,4.19,34.87c1.33,10.39,6.74,17.36,17,20.74s20.52,7.43,30.75,11.23c14.93,5.54,29.81,11.21,44.79,16.61A73.56,73.56,0,0,0,188,535.61c3.21.56,3.87-.12,3.57-3.3-.47-4.82-1-9.66-1.86-14.4-4.06-21.18-8.62-42.26-12.28-63.5-2.05-11.94-7.79-19.7-19.27-24-24.86-9.38-49.49-19.36-74.24-29C76.9,398.6,74.73,400.18,74.68,407.71Zm182.44,75.13a194.36,194.36,0,0,1,3.69-43.46c2.6-12.75,6.1-25.2,12.92-36.39,2.66-4.36,6.16-8.21,9.67-12.8-2-1.51-4-3.63-6.53-4.92-6.08-3.15-12.39-1.47-16.48,4-6,8-10,17-13.25,26.31-4.82,13.84-7.74,28.15-10,42.6-1.62,10.41-4.45,20.68-3.7,31.38a10.38,10.38,0,0,1-.77,2.73l26.58,9.85c2.82-37,10.12-72.28,31.85-103.43l-3.88-3.6c-5.18,4.32-8.48,9.62-11.27,15.23-8,16-11.76,33.29-15,50.71C259.59,468.3,258.39,475.57,257.12,482.84Zm7.19-184.56a55.41,55.41,0,0,1,.29-5.57c.42-2.81-.71-4.84-2.6-6.79a63.81,63.81,0,0,0-18.65-13.64c-12-5.64-24.63-7-37.64-5.5-10.94,1.26-21.17,4.51-29.91,11.51a40.16,40.16,0,0,0-10.13,11.33c29.29-2.3,57.14.8,82.18,17.73A20.4,20.4,0,0,1,264.31,298.28ZM188,480.82a73.47,73.47,0,0,1,1.45,7.66c.19,2.21,1.34,3.08,3.24,3.86q10.85,4.49,21.56,9.31c3.07,1.37,6,3.05,9,4.59l-.34.83-31.79-10.21a33.42,33.42,0,0,1,.82,5.06c0,3.86,1.92,5.79,5.43,7.26,4.31,1.8,8.26,4.44,12.37,6.72l-.42,1-15.25-4c.77,6.68,1.66,13.22,2.19,19.78.18,2.17,1.07,2.66,2.77,2.3,3.6-.78,7.35-1.27,10.71-2.69,8.35-3.5,16.55-7.38,24.74-11.26,6.83-3.24,13.59-6.65,20.31-10.11A28.79,28.79,0,0,0,259,507.7l-.13-1Zm124.63-18.36c1.51-2.43,3.17-4.78,4.52-7.3,7.77-14.5,9.09-30,6.5-45.91-1.64-10.15-4.41-19.93-10.26-28.57-5.68-8.41-13.24-13.8-23.69-14.2a6,6,0,0,0-3.65,1.44c-3.83,3.09-7.5,6.38-11.27,9.55a7.1,7.1,0,0,1-1.84.79l.73.77c6.35.92,11,4.39,14.54,9.56a8.52,8.52,0,0,0,1.49,1.82c9.67,8,15.32,18.43,18.87,30.21C312.62,434.21,313.09,448.12,312.58,462.46Zm-149-104.33a41.25,41.25,0,0,0,18.49,19.6c12.33,6.61,25.67,7.49,39.27,6.57a5.17,5.17,0,0,0,2.67-1.49c3.28-2.93,6.57-5.87,9.69-9,5.47-5.46,10.82-11,16.09-16.44L243.44,348C218.18,360,191.38,361.48,163.6,358.13Zm26.06-19.34c8.6-.71,15.43-1.21,22.25-1.86,5.58-.53,10.05-2.94,12.93-8,4.2-7.33,1.88-12.4-6.46-13.92a27.42,27.42,0,0,0-2.87-.35,44.91,44.91,0,0,0-22.34,4.11c-9.34,4.3-18.11,3-26.73-1.88-2.29-1.3-4.57-2.65-6.95-3.77-3.86-1.81-7-.53-7.84,3.64a40.32,40.32,0,0,0-.52,11c.46,5.2,2,6.82,7.2,7.49C169.31,336.66,180.32,337.75,189.66,338.79ZM176.24,435c0-.34,0-1,.09-1.72,1.29-16,2.56-32.09,3.9-48.14.21-2.51-.87-3.87-3.44-3.87-4.66,0-12.11,5.72-12.5,10.31-1,11.12-1.53,22.27-2.14,33.42a3.07,3.07,0,0,0,1.34,2.18C167.67,429.86,171.94,432.4,176.24,435ZM151.48,305.79c1-3.82,3.63-5.09,6.32-6.17,6.4-2.57,13.2-3.06,20-3.14,11.75-.15,23.3,1.78,34.74,4.34a104.32,104.32,0,0,1,25.08,8.82c1.71.88,2.42,1.78,2.25,4-.67,8.85-1,17.72-1.26,26.59a31.15,31.15,0,0,0,.68,5.23c2.44-.45,3.11-1.14,2.88-3.57a87.13,87.13,0,0,1-.34-16.54c.47-4.9,2.17-9.68,3.46-15.07-3.82-2.17-7.85-4.92-12.23-6.88-20.69-9.28-42.44-11.64-64.8-9.22-5.33.57-10.59,1.84-15.13,5C151,300.74,150.11,302.59,151.48,305.79Zm171.8,145.89c.26-.45.53-.89.78-1.35a65,65,0,0,0,7.12-22.78c1.82-14.3.61-28.26-4.78-41.73-1.71-4.27-1.34-5,3.3-5.35.35,0,.7,0,1.05,0,8.57,0,15.85,3.63,22.67,8.33,2.74,1.89,5.12,4.3,8,6.78a30,30,0,0,0-1.59-3.14,38.52,38.52,0,0,0-20.26-15.3c-7.42-2.5-14.13-.24-20.41,3.51C329.77,403.92,332.17,427.38,323.28,451.68ZM279,366.59a1,1,0,0,0,.43-.09,14.75,14.75,0,0,0,1.22-1c11.83-10.79,19.5-23.74,20.65-40,.84-11.84,1-23.58-3.87-34.82a59.69,59.69,0,0,0-18.31-23.75c.71,2.41.37,4.65,2.69,7,9,9.26,15.42,20.28,16.37,33.49a80.93,80.93,0,0,1-12,49C284,359.93,281.4,363.2,279,366.59Zm-10.47-98.15v45.37l8.73-1.35c-.4-15.11-.68-30.39-3.17-45.58Zm-39.59,63.87a12.13,12.13,0,0,0-1.13,1.26,18.08,18.08,0,0,1-12.51,8.05,93.88,93.88,0,0,1-11.76,1.52c-17.44.67-34.79.13-52.31-4.4l-.27,5c.79-.41,1.58-1.18,2.24-1.09,8.53,1.15,17,2.91,25.56,3.53a219.07,219.07,0,0,0,26.63.13,61.44,61.44,0,0,0,14.41-3C225,341.79,227.12,337.06,228.93,332.31ZM181.75,249.8a8.45,8.45,0,0,0-8.56-8.76,8.76,8.76,0,1,0,8.56,8.76Zm3.62,135.44c-.27,2.1-.53,4.18-.8,6.27a433.75,433.75,0,0,0-3.22,55.57c0,3.29,1.09,6.57,1.67,9.85l1.19-.12c0-5.09-.13-10.18,0-15.26a339.33,339.33,0,0,1,5-50.89C190.05,386.18,190,386.18,185.37,385.24Zm68.27-31.4c1.27-1.07,2.33-1.88,1.2-3.75a38.1,38.1,0,0,1-5.17-16.22c-1.11-11.5,1.63-22.78,13.12-29.11,1.42-.79,1.85-1.7,1-3.18-6.75.75-11.3,4.48-14,10.35a43.88,43.88,0,0,0-2.53,31.12A22.55,22.55,0,0,0,253.64,353.84Zm10.91-12.42c5.22-6.84,10.43-13.55,12.62-22.05.43-1.67-.37-2.34-1.8-2.47a9.54,9.54,0,0,0-2.87.15C262.31,319.25,257.66,333,264.55,341.42Zm3.49-78.5a8.21,8.21,0,0,0,8.26-8.14,8.33,8.33,0,1,0-16.65-.17A8.26,8.26,0,0,0,268,262.92Zm-12.69-5.69c.6-2,0-2.91-2-3.41-18-4.41-34.71-1.07-50.54,8-.28.16-.46.52-.69.78l.34.86c6.2-1.45,12.43-2.8,18.61-4.37,7.71-2,15.46-3.53,23.46-3.09C248.07,256.23,251.63,256.81,255.35,257.23Zm-87.65,4.36c-.58,3.64-1.22,7.34-1.76,11-.45,3.08-.77,6.18-1.18,9.53,2.94-2.71,5.64-5.17,8.3-7.67a2.46,2.46,0,0,0,.61-1.38c.53-3.45,1-6.91,1.5-10.38Zm48.35,128.49L199.51,389c2.25,3.44,4.33,6.64,6.51,10Zm-57.66,6.08-1.06-.86c-.76,1.14-1.48,2.32-2.3,3.42-4.71,6.22-5.91,13.55-6.64,21,0,.51.75,1.11,1.56,2.24a62.07,62.07,0,0,1,1.82-7.42c1.5-3.86,1.73-8.17,5.11-11.44C158.3,401.75,157.94,398.53,158.39,396.16Zm93.24-2.1-.33-.6-9.68,3.34.23.64Zm12.72-123.29-.14-.26v10.7h.14Z" transform="translate(-38.81 -221.06)"/><path class="cls-2" d="M257.12,482.84c1.27-7.27,2.47-14.54,3.82-21.79,3.25-17.42,7.05-34.69,15-50.71,2.79-5.61,6.09-10.91,11.27-15.23l3.88,3.6c-21.73,31.15-29,66.44-31.85,103.43l-26.58-9.85a10.38,10.38,0,0,0,.77-2.73c-.75-10.7,2.08-21,3.7-31.38,2.26-14.45,5.18-28.76,10-42.6,3.25-9.35,7.29-18.32,13.25-26.31,4.09-5.47,10.4-7.15,16.48-4,2.5,1.29,4.57,3.41,6.53,4.92-3.51,4.59-7,8.44-9.67,12.8-6.82,11.19-10.32,23.64-12.92,36.39A194.36,194.36,0,0,0,257.12,482.84Z" transform="translate(-38.81 -221.06)"/><path class="cls-2" d="M264.31,298.28a20.4,20.4,0,0,0-16.46,9.07c-25-16.93-52.89-20-82.18-17.73a40.16,40.16,0,0,1,10.13-11.33c8.74-7,19-10.25,29.91-11.51,13-1.49,25.64-.14,37.64,5.5A63.81,63.81,0,0,1,262,285.92c1.89,1.95,3,4,2.6,6.79A55.41,55.41,0,0,0,264.31,298.28Z" transform="translate(-38.81 -221.06)"/><path class="cls-2" d="M188,480.82l70.87,25.86.13,1a28.79,28.79,0,0,1-4.22,3.25c-6.72,3.46-13.48,6.87-20.31,10.11-8.19,3.88-16.39,7.76-24.74,11.26-3.36,1.42-7.11,1.91-10.71,2.69-1.7.36-2.59-.13-2.77-2.3-.53-6.56-1.42-13.1-2.19-19.78l15.25,4,.42-1c-4.11-2.28-8.06-4.92-12.37-6.72-3.51-1.47-5.42-3.4-5.43-7.26a33.42,33.42,0,0,0-.82-5.06l31.79,10.21.34-.83c-3-1.54-5.92-3.22-9-4.59q-10.71-4.8-21.56-9.31c-1.9-.78-3-1.65-3.24-3.86A73.47,73.47,0,0,0,188,480.82Z" transform="translate(-38.81 -221.06)"/><path class="cls-2" d="M312.58,462.46c.51-14.34,0-28.25-4.06-41.84-3.55-11.78-9.2-22.25-18.87-30.21a8.52,8.52,0,0,1-1.49-1.82c-3.54-5.17-8.19-8.64-14.54-9.56l-.73-.77a7.1,7.1,0,0,0,1.84-.79c3.77-3.17,7.44-6.46,11.27-9.55a6,6,0,0,1,3.65-1.44c10.45.4,18,5.79,23.69,14.2,5.85,8.64,8.62,18.42,10.26,28.57,2.59,16,1.27,31.41-6.5,45.91C315.75,457.68,314.09,460,312.58,462.46Z" transform="translate(-38.81 -221.06)"/><path class="cls-2" d="M163.6,358.13c27.78,3.35,54.58,1.88,79.84-10.18l6.37,9.45c-5.27,5.4-10.62,11-16.09,16.44-3.12,3.1-6.41,6-9.69,9a5.17,5.17,0,0,1-2.67,1.49c-13.6.92-26.94,0-39.27-6.57A41.25,41.25,0,0,1,163.6,358.13Z" transform="translate(-38.81 -221.06)"/><path class="cls-2" d="M189.66,338.79c-9.34-1-20.35-2.13-31.33-3.54-5.18-.67-6.74-2.29-7.2-7.49a40.32,40.32,0,0,1,.52-11c.81-4.17,4-5.45,7.84-3.64,2.38,1.12,4.66,2.47,6.95,3.77,8.62,4.88,17.39,6.18,26.73,1.88a44.91,44.91,0,0,1,22.34-4.11,27.42,27.42,0,0,1,2.87.35c8.34,1.52,10.66,6.59,6.46,13.92-2.88,5-7.35,7.44-12.93,8C205.09,337.58,198.26,338.08,189.66,338.79Z" transform="translate(-38.81 -221.06)"/><path class="cls-2" d="M176.24,435c-4.3-2.62-8.57-5.16-12.75-7.82a3.07,3.07,0,0,1-1.34-2.18c.61-11.15,1.18-22.3,2.14-33.42.39-4.59,7.84-10.31,12.5-10.31,2.57,0,3.65,1.36,3.44,3.87-1.34,16-2.61,32.1-3.9,48.14C176.27,434,176.26,434.68,176.24,435Z" transform="translate(-38.81 -221.06)"/><path class="cls-2" d="M282.27,321.86c-4.54,16.22-12.27,30.56-24.17,42.7-14.19,14.48-29.36,27.87-44.63,41.18a8.49,8.49,0,0,0-2.5,4.62c-2.57,14.55-5,29.13-7.38,43.7a74,74,0,0,1-1.94,9.79c.18-2.49.29-5,.54-7.49,1.58-15.76,3.23-31.51,4.75-47.28a11.21,11.21,0,0,1,4.23-7.74c16.71-14.74,33.24-29.68,48.23-46.21,7.82-8.62,15.21-17.58,20.38-28.14q1.25-2.55,2.51-5.08Z" transform="translate(-38.81 -221.06)"/><path class="cls-2" d="M151.48,305.79c-1.37-3.2-.52-5.05,1.61-6.54,4.54-3.19,9.8-4.46,15.13-5,22.36-2.42,44.11-.06,64.8,9.22,4.38,2,8.41,4.71,12.23,6.88-1.29,5.39-3,10.17-3.46,15.07a87.13,87.13,0,0,0,.34,16.54c.23,2.43-.44,3.12-2.88,3.57a31.15,31.15,0,0,1-.68-5.23c.31-8.87.59-17.74,1.26-26.59.17-2.26-.54-3.16-2.25-4a104.32,104.32,0,0,0-25.08-8.82c-11.44-2.56-23-4.49-34.74-4.34-6.76.08-13.56.57-20,3.14C155.11,300.7,152.44,302,151.48,305.79Z" transform="translate(-38.81 -221.06)"/><path class="cls-2" d="M323.28,451.68c8.89-24.3,6.49-47.76-4.1-71.05,6.28-3.75,13-6,20.41-3.51a38.52,38.52,0,0,1,20.26,15.3,30,30,0,0,1,1.59,3.14c-2.9-2.48-5.28-4.89-8-6.78-6.82-4.7-14.1-8.32-22.67-8.33-.35,0-.7,0-1.05,0-4.64.39-5,1.08-3.3,5.35,5.39,13.47,6.6,27.43,4.78,41.73a65,65,0,0,1-7.12,22.78C323.81,450.79,323.54,451.23,323.28,451.68Z" transform="translate(-38.81 -221.06)"/><path class="cls-2" d="M279,366.59c2.41-3.39,5-6.66,7.21-10.21a80.93,80.93,0,0,0,12-49c-.95-13.21-7.34-24.23-16.37-33.49-2.32-2.39-2-4.63-2.69-7a59.69,59.69,0,0,1,18.31,23.75c4.85,11.24,4.71,23,3.87,34.82-1.15,16.3-8.82,29.25-20.65,40a14.75,14.75,0,0,1-1.22,1A1,1,0,0,1,279,366.59Z" transform="translate(-38.81 -221.06)"/><path class="cls-2" d="M268.52,268.44l5.56-1.56c2.49,15.19,2.77,30.47,3.17,45.58l-8.73,1.35Z" transform="translate(-38.81 -221.06)"/><path class="cls-2" d="M228.93,332.31c-1.81,4.75-3.89,9.48-9.14,11.05a61.44,61.44,0,0,1-14.41,3,219.07,219.07,0,0,1-26.63-.13c-8.56-.62-17-2.38-25.56-3.53-.66-.09-1.45.68-2.24,1.09l.27-5c17.52,4.53,34.87,5.07,52.31,4.4a93.88,93.88,0,0,0,11.76-1.52,18.08,18.08,0,0,0,12.51-8.05A12.13,12.13,0,0,1,228.93,332.31Z" transform="translate(-38.81 -221.06)"/><path class="cls-2" d="M181.75,249.8a8.66,8.66,0,1,1-8.56-8.76A8.45,8.45,0,0,1,181.75,249.8Z" transform="translate(-38.81 -221.06)"/><path class="cls-2" d="M185.37,385.24c4.67.94,4.68.94,3.86,5.42a339.33,339.33,0,0,0-5,50.89c-.16,5.08,0,10.17,0,15.26l-1.19.12c-.58-3.28-1.65-6.56-1.67-9.85a433.75,433.75,0,0,1,3.22-55.57C184.84,389.42,185.1,387.34,185.37,385.24Z" transform="translate(-38.81 -221.06)"/><path class="cls-2" d="M253.64,353.84a22.55,22.55,0,0,1-6.39-10.79,43.88,43.88,0,0,1,2.53-31.12c2.72-5.87,7.27-9.6,14-10.35.84,1.48.41,2.39-1,3.18-11.49,6.33-14.23,17.61-13.12,29.11a38.1,38.1,0,0,0,5.17,16.22C256,352,254.91,352.77,253.64,353.84Z" transform="translate(-38.81 -221.06)"/><path class="cls-2" d="M264.55,341.42c-6.89-8.38-2.24-22.17,7.95-24.37a9.54,9.54,0,0,1,2.87-.15c1.43.13,2.23.8,1.8,2.47C275,327.87,269.77,334.58,264.55,341.42Z" transform="translate(-38.81 -221.06)"/><path class="cls-2" d="M268,262.92a8.31,8.31,0,0,1-.26-16.61,8.35,8.35,0,0,1,8.52,8.47A8.21,8.21,0,0,1,268,262.92Z" transform="translate(-38.81 -221.06)"/><path class="cls-2" d="M255.35,257.23c-3.72-.42-7.28-1-10.86-1.19-8-.44-15.75,1.13-23.46,3.09-6.18,1.57-12.41,2.92-18.61,4.37l-.34-.86c.23-.26.41-.62.69-.78,15.83-9.11,32.55-12.45,50.54-8C255.37,254.32,256,255.23,255.35,257.23Z" transform="translate(-38.81 -221.06)"/><path class="cls-2" d="M167.7,261.59l7.47,1.14c-.49,3.47-1,6.93-1.5,10.38a2.46,2.46,0,0,1-.61,1.38c-2.66,2.5-5.36,5-8.3,7.67.41-3.35.73-6.45,1.18-9.53C166.48,268.93,167.12,265.23,167.7,261.59Z" transform="translate(-38.81 -221.06)"/><path class="cls-2" d="M216.05,390.08,206,399c-2.18-3.35-4.26-6.55-6.51-10Z" transform="translate(-38.81 -221.06)"/><path class="cls-2" d="M282.29,321.91V310.49a19.21,19.21,0,0,1,0,11.36Z" transform="translate(-38.81 -221.06)"/><path class="cls-2" d="M264.35,270.77v10.44h-.14v-10.7Z" transform="translate(-38.81 -221.06)"/><path class="cls-1" d="M164.74,473.26v1.18c0,3.44-.43,4.17-3.64,4.8-2.63.5-4.63,1.42-5,4.34a2.17,2.17,0,0,1-.51,1.13c-1.56,1.75-1.18,3.74,0,5.88a16.54,16.54,0,0,1,.87,2.14,3.07,3.07,0,0,1-.64,3.59c-1.34,1.23-2.72,2.41-4.14,3.56a3.24,3.24,0,0,1-3.93.08c-1.39-.8-2.77-1.64-4.19-2.35a2.5,2.5,0,0,0-1.59-.15c-1.64.4-3.19,1.07-4.86,1.34a2.65,2.65,0,0,0-2.47,2c-.31,1-.84,2-1.22,3a3.07,3.07,0,0,1-3.55,2.07c-1.76-.2-3.52-.44-5.28-.75A4.07,4.07,0,0,1,121,502c-.87-3.53-2.81-5.76-6.28-7.44-2.4-1.15-4.31-1.88-6.48-.81a9,9,0,0,1-1.74.51,3.59,3.59,0,0,1-3.69-1.13c-1.46-1.57-2.88-3.19-4.25-4.84a3.46,3.46,0,0,1-.61-3.77c.69-1.57,2-3.05,2-4.71s-1.51-3.44-1.92-5.22c-.51-2.19-1.76-3.29-3.69-4.27-4.63-2.34-4.71-2.62-4.71-7.61v-.44c0-4.5.17-4.88,4.41-5.79,2.13-.46,3.67-1.23,4.07-3.56a5,5,0,0,1,1-2.27c1.15-1.39.8-2.83.07-4.55-2.23-5.23-2.12-5.47,1.78-8.7.56-.46,1.15-.9,1.73-1.34a3.3,3.3,0,0,1,3.93-.14c1.61.92,3.23,2.36,4.85,2.59s3.15-1,4.82-1.16c2.27-.23,3.28-1.45,4-3.43,1.56-4.09,1.94-4.18,6.52-3.55,5.43.75,5.54.75,7.43,6.1a5.36,5.36,0,0,0,3.44,3.72,11.23,11.23,0,0,1,3.08,1.75,3.53,3.53,0,0,0,4,.62c.41-.2.92-.22,1.33-.41,2.65-1.25,4.89-.42,6.87,2.16.85,1.13,1.82,2.16,2.71,3.27a3.55,3.55,0,0,1,.63,3.89c-.7,1.57-1.94,3.05-2,4.71s1.49,3.36,1.9,5.09a6.23,6.23,0,0,0,3.79,4.38C164.67,467.92,164.75,468.22,164.74,473.26ZM111.68,490l1.28.74a58.3,58.3,0,0,0,5.79,3.25,5.19,5.19,0,0,1,3.1,3.32c2,5.5,2.05,5.51,7.6,5.83a1.94,1.94,0,0,0,1.58-.88c.77-1.41,1.24-3,2-4.43a2.89,2.89,0,0,1,1.61-1.22c1.91-.58,4-.81,5.81-1.57a4.34,4.34,0,0,1,4.34.49c5.13,3,5.18,3,8.73-.87a2.24,2.24,0,0,0,.27-1.88c-.53-1.64-1.37-3.22-1.88-4.86a3.62,3.62,0,0,1,.12-2.28c.73-1.85,1.82-3.54,2.4-5.45a3.51,3.51,0,0,1,2.88-2.69c5.22-1.26,5.22-1.32,4.76-6.94a2.76,2.76,0,0,0-1.11-1.73,40.51,40.51,0,0,0-4.33-2.38,3.54,3.54,0,0,1-2-2.39,30.42,30.42,0,0,0-2.25-5.86,4.29,4.29,0,0,1-.12-4.36c2.31-4.8,2.27-4.86-2.1-9a2.53,2.53,0,0,0-1.91-.54c-1.57.3-3,.94-4.61,1.23a3.88,3.88,0,0,1-2.29-.45c-2-1-3.8-2.35-5.8-3.21a5.14,5.14,0,0,1-3.09-3.31c-2-5.51-2.06-5.52-7.61-5.83a1.94,1.94,0,0,0-1.58.88c-.74,1.37-1.18,2.94-1.95,4.3a3.31,3.31,0,0,1-1.82,1.35c-1.85.6-3.89.82-5.65,1.57a4.36,4.36,0,0,1-4.35-.49c-5.12-3-5.13-3-8.77.82a1.54,1.54,0,0,0-.28,1.94,50,50,0,0,1,1.94,4.85,3.69,3.69,0,0,1-.13,2.28c-.73,1.85-1.82,3.54-2.4,5.45a3.53,3.53,0,0,1-2.88,2.7c-5.22,1.26-5.22,1.31-4.76,6.92A2.8,2.8,0,0,0,93.38,467c1.48,1,3.11,1.62,4.57,2.6a4.85,4.85,0,0,1,1.61,2c.78,1.79,1.15,3.73,2.1,5.42a5.19,5.19,0,0,1,.17,5.44c-2,4-1.89,4,1.6,7.87,1.07,1.17,2,1.59,3.33,1.06C108.3,490.86,110,490.51,111.68,490Z" transform="translate(-38.81 -221.06)"/><path class="cls-1" d="M111.68,490c-1.71.5-3.38.85-4.92,1.46-1.36.53-2.26.11-3.33-1.06-3.49-3.82-3.63-3.84-1.6-7.87a5.19,5.19,0,0,0-.17-5.44c-1-1.69-1.32-3.63-2.1-5.42a4.85,4.85,0,0,0-1.61-2c-1.46-1-3.09-1.64-4.57-2.6a2.8,2.8,0,0,1-1.11-1.74c-.46-5.61-.46-5.66,4.76-6.92a3.53,3.53,0,0,0,2.88-2.7c.58-1.91,1.67-3.6,2.4-5.45a3.69,3.69,0,0,0,.13-2.28,50,50,0,0,0-1.94-4.85,1.54,1.54,0,0,1,.28-1.94c3.64-3.78,3.65-3.85,8.77-.82a4.36,4.36,0,0,0,4.35.49c1.76-.75,3.8-1,5.65-1.57a3.31,3.31,0,0,0,1.82-1.35c.77-1.36,1.21-2.93,1.95-4.3a1.94,1.94,0,0,1,1.58-.88c5.55.31,5.61.32,7.61,5.83a5.14,5.14,0,0,0,3.09,3.31c2,.86,3.84,2.2,5.8,3.21a3.88,3.88,0,0,0,2.29.45c1.58-.29,3-.93,4.61-1.23a2.53,2.53,0,0,1,1.91.54c4.37,4.15,4.41,4.21,2.1,9a4.29,4.29,0,0,0,.12,4.36,30.42,30.42,0,0,1,2.25,5.86,3.54,3.54,0,0,0,2,2.39,40.51,40.51,0,0,1,4.33,2.38,2.76,2.76,0,0,1,1.11,1.73c.46,5.62.46,5.68-4.76,6.94a3.51,3.51,0,0,0-2.88,2.69c-.58,1.91-1.67,3.6-2.4,5.45a3.62,3.62,0,0,0-.12,2.28c.51,1.64,1.35,3.22,1.88,4.86a2.24,2.24,0,0,1-.27,1.88c-3.55,3.85-3.6,3.89-8.73.87a4.34,4.34,0,0,0-4.34-.49c-1.81.76-3.9,1-5.81,1.57a2.89,2.89,0,0,0-1.61,1.22c-.77,1.42-1.24,3-2,4.43a1.94,1.94,0,0,1-1.58.88c-5.55-.32-5.6-.33-7.6-5.83a5.19,5.19,0,0,0-3.1-3.32,58.3,58.3,0,0,1-5.79-3.25Zm41.8-17.55c.38-14.45-10.86-28.15-25.49-30.68-14.14-2.45-26.59,6.69-27.1,21.64-.48,14.28,10.61,28.09,25.47,30.68C140.69,496.59,152.89,487.22,153.48,472.46Z" transform="translate(-38.81 -221.06)"/><path class="cls-3" d="M153.48,472.46c-.59,14.76-12.79,24.13-27.12,21.64-14.86-2.59-25.95-16.4-25.47-30.68.51-14.95,13-24.09,27.1-21.64C142.62,444.31,153.86,458,153.48,472.46Zm-50.08-7.83c0,13.05,10.64,25.21,23.66,27.06,13.23,1.87,23.88-7.25,23.89-20.45S140.28,446,127.14,444.17,103.4,451.48,103.4,464.63Z" transform="translate(-38.81 -221.06)"/><path class="cls-1" d="M123.2,482.71l1.2-7.7q1.65-10.54,3.29-21.08c.09-.57.16-1.14.3-1.69a1.36,1.36,0,0,1,1.87-1,1.9,1.9,0,0,1,1.28,2.06q-.91,5.93-1.85,11.84-1.38,8.88-2.78,17.75a5.14,5.14,0,0,1-.15.8,1.37,1.37,0,0,1-1.77.95A2,2,0,0,1,123.2,482.71Z" transform="translate(-38.81 -221.06)"/><path class="cls-1" d="M109.52,465.44,118,475.6a7.59,7.59,0,0,1,.56.71,1.59,1.59,0,0,1-.17,2.05,1.62,1.62,0,0,1-2.14-.19,6.2,6.2,0,0,1-.54-.61q-4.59-5.49-9.17-11c-1.17-1.4-1.17-2,0-3.07l9.16-8.42a6.12,6.12,0,0,1,.48-.41,1.65,1.65,0,0,1,2.2.34,1.61,1.61,0,0,1,.09,2.21c-.76.76-1.56,1.47-2.35,2.19Z" transform="translate(-38.81 -221.06)"/><path class="cls-1" d="M144.84,470.4c-2.18-2.62-4.33-5.19-6.47-7.77-.77-.93-1.55-1.84-2.3-2.77s-.71-1.86,0-2.4a1.72,1.72,0,0,1,2.39.53q4.84,5.81,9.68,11.62c.83,1,.82,1.75,0,2.51q-4.78,4.44-9.62,8.85a1.73,1.73,0,1,1-2.35-2.54c2.66-2.46,5.34-4.91,8-7.36Z" transform="translate(-38.81 -221.06)"/><rect class="cls-1" x="342.84" y="17.49" width="637.91" height="301.44" rx="110"/><text class="cls-4" transform="translate(362.51 209.53)">SCRAPEWIZ</text><rect class="cls-5" x="3.5" y="3.5" width="994.95" height="330.99" rx="120"/></svg>